<?xml version="1.0" encoding="utf-8"?>
<svg viewBox="6.6788 0.7797 42.6424 58.4405" width="42.6424" height="58.4405" xmlns="http://www.w3.org/2000/svg">
  <g style="transform-origin: 32.3185px 31.4235px;" transform="matrix(1.105844020844, 0, 0, 1.105844020844, -4.31849866931, -1.423497804619)">
    <path fill-rule="evenodd" clip-rule="evenodd" d="M 44.753 14.411 L 44.753 34.254 C 47.209 31.916 49.062 29.312 49.062 26.716 L 49.062 11.847 C 43.62 12.331 38.132 12.133 32.746 11.261 C 24.635 9.854 19.653 7.982 15.567 5 C 25.298 14.644 44.753 14.411 44.753 14.411 Z M 49.062 8.319 L 49.062 5 C 43.633 6.526 37.994 7.3 32.323 7.299 C 26.647 7.302 21.001 6.527 15.567 5 C 15.567 5 28.315 12.289 49.08 8.319 L 49.062 8.319 Z M 36.349 18.55 L 36.349 40.25 C 37.667 39.503 39.176 38.554 40.658 37.501 L 40.658 16.782 C 21.557 15.094 15.567 5 15.567 5 C 22.092 17.393 36.349 18.55 36.349 18.55 Z M 32.323 42.38 L 32.323 20.584 C 17.739 14.861 15.567 5 15.567 5 L 15.567 26.7 C 15.567 34.568 32.323 42.38 32.323 42.38 Z" fill="#C90000" style=""/>
    <path d="M 18.8 50.075 C 18.8 50.238 18.744 50.38 18.632 50.5 C 18.521 50.612 18.379 50.668 18.207 50.668 L 16.854 50.668 C 16.742 50.668 16.686 50.724 16.686 50.835 L 16.686 57.254 C 16.686 57.418 16.626 57.559 16.506 57.68 C 16.394 57.791 16.257 57.847 16.093 57.847 L 15.758 57.847 C 15.595 57.847 15.453 57.791 15.333 57.68 C 15.221 57.559 15.165 57.418 15.165 57.254 L 15.165 50.835 C 15.165 50.724 15.109 50.668 14.998 50.668 L 13.631 50.668 C 13.468 50.668 13.326 50.612 13.206 50.5 C 13.094 50.38 13.038 50.238 13.038 50.075 L 13.038 49.727 C 13.038 49.555 13.094 49.413 13.206 49.301 C 13.326 49.19 13.468 49.134 13.631 49.134 L 18.207 49.134 C 18.379 49.134 18.521 49.19 18.632 49.301 C 18.744 49.413 18.8 49.555 18.8 49.727 L 18.8 50.075 Z M 26.319 57.035 C 26.405 57.233 26.393 57.413 26.281 57.577 C 26.152 57.757 25.989 57.847 25.791 57.847 L 25.404 57.847 C 25.293 57.847 25.181 57.813 25.069 57.744 C 24.966 57.675 24.893 57.589 24.85 57.486 L 23.638 54.586 C 23.595 54.483 23.518 54.432 23.406 54.432 L 22.208 54.432 C 22.096 54.432 22.04 54.487 22.04 54.599 L 22.04 57.254 C 22.04 57.418 21.98 57.559 21.86 57.68 C 21.748 57.791 21.61 57.847 21.447 57.847 L 21.086 57.847 C 20.923 57.847 20.786 57.791 20.674 57.68 C 20.571 57.559 20.519 57.418 20.519 57.254 L 20.519 49.727 C 20.519 49.555 20.571 49.413 20.674 49.301 C 20.786 49.19 20.923 49.134 21.086 49.134 L 24.579 49.134 C 24.889 49.134 25.172 49.211 25.43 49.366 C 25.688 49.521 25.894 49.727 26.049 49.985 C 26.203 50.242 26.281 50.53 26.281 50.848 L 26.281 52.73 C 26.281 53.065 26.191 53.37 26.01 53.645 C 25.838 53.912 25.611 54.118 25.327 54.264 C 25.293 54.273 25.267 54.303 25.25 54.354 C 25.232 54.397 25.237 54.44 25.262 54.483 L 26.319 57.035 Z M 24.747 52.73 L 24.747 50.848 C 24.747 50.728 24.691 50.668 24.579 50.668 L 22.208 50.668 C 22.096 50.668 22.04 50.724 22.04 50.835 L 22.04 52.73 C 22.04 52.842 22.096 52.898 22.208 52.898 L 24.579 52.898 C 24.691 52.898 24.747 52.842 24.747 52.73 Z M 29.62 57.254 C 29.62 57.418 29.56 57.559 29.439 57.68 C 29.328 57.791 29.19 57.847 29.027 57.847 L 28.679 57.847 C 28.516 57.847 28.374 57.791 28.254 57.68 C 28.142 57.559 28.086 57.418 28.086 57.254 L 28.086 49.727 C 28.086 49.555 28.142 49.413 28.254 49.301 C 28.374 49.19 28.516 49.134 28.679 49.134 L 29.027 49.134 C 29.19 49.134 29.328 49.19 29.439 49.301 C 29.56 49.413 29.62 49.555 29.62 49.727 L 29.62 57.254 Z M 36.905 57.254 C 36.905 57.418 36.845 57.559 36.724 57.68 C 36.613 57.791 36.48 57.847 36.325 57.847 L 31.891 57.847 C 31.736 57.847 31.599 57.791 31.478 57.68 C 31.367 57.559 31.311 57.418 31.311 57.254 L 31.311 49.727 C 31.311 49.555 31.367 49.413 31.478 49.301 C 31.599 49.19 31.736 49.134 31.891 49.134 L 32.252 49.134 C 32.415 49.134 32.552 49.19 32.664 49.301 C 32.784 49.413 32.845 49.555 32.845 49.727 L 32.845 56.159 C 32.845 56.27 32.896 56.326 32.999 56.326 L 36.325 56.326 C 36.48 56.326 36.613 56.382 36.724 56.494 C 36.845 56.606 36.905 56.747 36.905 56.919 L 36.905 57.254 Z M 44.312 56.146 C 44.312 56.455 44.235 56.739 44.08 56.997 C 43.925 57.254 43.719 57.461 43.461 57.615 C 43.204 57.77 42.92 57.847 42.611 57.847 L 40.291 57.847 C 39.981 57.847 39.693 57.77 39.427 57.615 C 39.169 57.461 38.963 57.254 38.808 56.997 C 38.654 56.739 38.576 56.455 38.576 56.146 L 38.576 50.848 C 38.576 50.53 38.654 50.242 38.808 49.985 C 38.963 49.727 39.169 49.521 39.427 49.366 C 39.693 49.211 39.981 49.134 40.291 49.134 L 42.611 49.134 C 42.92 49.134 43.204 49.211 43.461 49.366 C 43.719 49.521 43.925 49.727 44.08 49.985 C 44.235 50.242 44.312 50.53 44.312 50.848 L 44.312 51.196 C 44.312 51.36 44.256 51.497 44.145 51.609 C 44.033 51.72 43.891 51.776 43.719 51.776 L 43.371 51.776 C 43.208 51.776 43.066 51.72 42.946 51.609 C 42.834 51.497 42.778 51.36 42.778 51.196 L 42.778 50.848 C 42.778 50.728 42.722 50.668 42.611 50.668 L 40.291 50.668 C 40.179 50.668 40.123 50.728 40.123 50.848 L 40.123 56.146 C 40.123 56.189 40.14 56.232 40.175 56.275 C 40.209 56.309 40.248 56.326 40.291 56.326 L 42.611 56.326 C 42.654 56.326 42.692 56.309 42.727 56.275 C 42.761 56.232 42.778 56.189 42.778 56.146 L 42.778 55.759 C 42.778 55.596 42.834 55.458 42.946 55.347 C 43.066 55.226 43.208 55.166 43.371 55.166 L 43.719 55.166 C 43.891 55.166 44.033 55.226 44.145 55.347 C 44.256 55.458 44.312 55.596 44.312 55.759 L 44.312 56.146 Z M 51.599 57.254 C 51.599 57.418 51.539 57.559 51.419 57.68 C 51.307 57.791 51.174 57.847 51.019 57.847 L 46.585 57.847 C 46.431 57.847 46.293 57.791 46.173 57.68 C 46.061 57.559 46.005 57.418 46.005 57.254 L 46.005 49.727 C 46.005 49.555 46.061 49.413 46.173 49.301 C 46.293 49.19 46.431 49.134 46.585 49.134 L 51.019 49.134 C 51.174 49.134 51.307 49.19 51.419 49.301 C 51.539 49.413 51.599 49.555 51.599 49.727 L 51.599 50.075 C 51.599 50.238 51.539 50.38 51.419 50.5 C 51.307 50.612 51.174 50.668 51.019 50.668 L 47.694 50.668 C 47.591 50.668 47.539 50.724 47.539 50.835 L 47.539 52.55 C 47.539 52.67 47.591 52.73 47.694 52.73 L 50.555 52.73 C 50.727 52.73 50.869 52.786 50.981 52.898 C 51.092 53.009 51.148 53.147 51.148 53.31 L 51.148 53.671 C 51.148 53.834 51.092 53.976 50.981 54.096 C 50.869 54.208 50.727 54.264 50.555 54.264 L 47.694 54.264 C 47.591 54.264 47.539 54.316 47.539 54.419 L 47.539 56.159 C 47.539 56.27 47.591 56.326 47.694 56.326 L 51.019 56.326 C 51.174 56.326 51.307 56.382 51.419 56.494 C 51.539 56.606 51.599 56.747 51.599 56.919 L 51.599 57.254 Z" fill="#233559" style=""/>
  </g>
</svg>
